<?xml version="1.0" encoding="UTF-8" standalone="no"?>
<!-- Created with Inkscape (http://www.inkscape.org/) -->

<svg
   xmlns:dc="http://purl.org/dc/elements/1.1/"
   xmlns:cc="http://creativecommons.org/ns#"
   xmlns:rdf="http://www.w3.org/1999/02/22-rdf-syntax-ns#"
   xmlns:svg="http://www.w3.org/2000/svg"
   xmlns="http://www.w3.org/2000/svg"
   xmlns:sodipodi="http://sodipodi.sourceforge.net/DTD/sodipodi-0.dtd"
   xmlns:inkscape="http://www.inkscape.org/namespaces/inkscape"
   sodipodi:docname="borders.svg"
   inkscape:version="0.92.4 (5da689c313, 2019-01-14)"
   id="svg8"
   version="1.1"
   viewBox="0 0 800 800"
   height="800mm"
   width="800mm">
  <sodipodi:namedview
     width="800in"
     units="mm"
     inkscape:window-maximized="0"
     inkscape:window-y="0"
     inkscape:window-x="-8"
     inkscape:window-height="946"
     inkscape:window-width="1224"
     showgrid="true"
     inkscape:current-layer="svg8"
     inkscape:document-units="mm"
     inkscape:cy="1453.3084"
     inkscape:cx="1421.3127"
     inkscape:zoom="0.22627418"
     inkscape:pageshadow="2"
     inkscape:pageopacity="0.0"
     borderopacity="1.0"
     bordercolor="#666666"
     pagecolor="#ffffff"
     id="base"
     showguides="true"
     inkscape:guide-bbox="true"
     inkscape:snap-global="false">
    <inkscape:grid
       type="xygrid"
       id="grid816" />
    <sodipodi:guide
       position="254,402.16666"
       orientation="0,1"
       id="guide814"
       inkscape:locked="false" />
  </sodipodi:namedview>
  <defs
     id="defs2" />
  <metadata
     id="metadata5">
    <rdf:RDF>
      <cc:Work
         rdf:about="">
        <dc:format>image/svg+xml</dc:format>
        <dc:type
           rdf:resource="http://purl.org/dc/dcmitype/StillImage" />
        <dc:title></dc:title>
      </cc:Work>
    </rdf:RDF>
  </metadata>
  <g
     id="layer1"
     inkscape:groupmode="layer"
     inkscape:label="Layer 1" />
  <path
     style="color:#000000;font-style:normal;font-variant:normal;font-weight:normal;font-stretch:normal;font-size:medium;line-height:normal;font-family:sans-serif;font-variant-ligatures:normal;font-variant-position:normal;font-variant-caps:normal;font-variant-numeric:normal;font-variant-alternates:normal;font-feature-settings:normal;text-indent:0;text-align:start;text-decoration:none;text-decoration-line:none;text-decoration-style:solid;text-decoration-color:#000000;letter-spacing:normal;word-spacing:normal;text-transform:none;writing-mode:lr-tb;direction:ltr;text-orientation:mixed;dominant-baseline:auto;baseline-shift:baseline;text-anchor:start;white-space:normal;shape-padding:0;clip-rule:nonzero;display:inline;overflow:visible;visibility:visible;opacity:1;isolation:auto;mix-blend-mode:normal;color-interpolation:sRGB;color-interpolation-filters:linearRGB;solid-color:#000000;solid-opacity:1;vector-effect:none;fill:#000000;fill-opacity:1;fill-rule:nonzero;stroke:none;stroke-width:6.46999979;stroke-linecap:butt;stroke-linejoin:miter;stroke-miterlimit:4;stroke-dasharray:none;stroke-dashoffset:0;stroke-opacity:1;color-rendering:auto;image-rendering:auto;shape-rendering:auto;text-rendering:auto;enable-background:accumulate"
     d="M 61.162109,14.767578 C 36.868712,14.767578 17.103516,34.532323 17.103516,58.826172 V 122.49023 C 17.103516,146.78454 36.868722,166.54883 61.162109,166.54883 H 123.3457 C 147.64001,166.54883 167.4043,146.78454 167.4043,122.49023 V 58.826172 C 167.4043,34.532323 147.64002,14.767578 123.3457,14.767578 Z M 209.32812,14.767578 C 191.85974,14.767578 177.62891,28.998402 177.62891,46.466797 V 108.17383 C 177.62891,125.6431 191.85974,139.87305 209.32812,139.87305 H 323.49023 C 340.95862,139.87305 355.18945,125.64309 355.18945,108.17383 V 46.466797 C 355.18945,28.998415 340.95862,14.767578 323.49023,14.767578 Z M 399.82812,14.767578 C 377.9838,14.767578 360.20703,32.544351 360.20703,54.388672 V 97.806641 C 360.20703,119.65096 377.9837,137.42969 399.82812,137.42969 H 504.00781 C 525.85224,137.42969 543.62891,119.65096 543.62891,97.806641 V 54.388672 C 543.62891,32.544351 525.85213,14.767578 504.00781,14.767578 Z M 626.10742,14.767578 C 618.32887,14.767578 612.16211,21.474535 612.16211,29.419922 V 196.17578 C 612.16211,204.12117 618.32901,210.82812 626.10742,210.82812 H 764.22852 C 772.00693,210.82812 778.17188,204.12085 778.17188,196.17578 V 29.419922 C 778.17188,21.474856 772.00707,14.767578 764.22852,14.767578 Z M 559.80664,14.828125 C 554.64406,14.828125 550.39062,19.08156 550.39062,24.244141 V 49.847656 C 550.39062,55.010237 554.64406,59.265625 559.80664,59.265625 H 597.5293 C 602.69188,59.265625 606.94531,55.009605 606.94531,49.847656 V 24.244141 C 606.94531,19.082192 602.69188,14.828125 597.5293,14.828125 Z M 61.162109,21.238281 H 123.3457 C 144.14338,21.238281 160.93359,38.029021 160.93359,58.826172 V 122.49023 C 160.93359,143.28792 144.14339,160.07812 123.3457,160.07812 H 61.162109 C 40.365497,160.07812 23.574219,143.28792 23.574219,122.49023 V 58.826172 C 23.574219,38.029021 40.365506,21.238281 61.162109,21.238281 Z M 209.32812,21.238281 H 323.49023 C 337.46185,21.238281 348.7207,32.495178 348.7207,46.466797 V 108.17383 C 348.7207,122.14655 337.46185,133.4043 323.49023,133.4043 H 209.32812 C 195.35651,133.4043 184.09961,122.14653 184.09961,108.17383 V 46.466797 C 184.09961,32.495192 195.35651,21.238281 209.32812,21.238281 Z M 399.82812,21.238281 H 504.00781 C 522.35549,21.238281 537.1582,36.040993 537.1582,54.388672 V 97.806641 C 537.1582,116.15432 522.35538,130.95898 504.00781,130.95898 H 399.82812 C 381.48055,130.95898 366.67578,116.15432 366.67578,97.806641 V 54.388672 C 366.67578,36.040993 381.48045,21.238281 399.82812,21.238281 Z M 626.10742,21.238281 H 764.22852 C 768.27964,21.238281 771.70117,24.754987 771.70117,29.419922 V 196.17578 C 771.70117,200.84072 768.27978,204.35742 764.22852,204.35742 H 626.10742 C 622.05615,204.35742 618.63281,200.84039 618.63281,196.17578 V 29.419922 C 618.63281,24.755309 622.0563,21.238281 626.10742,21.238281 Z M 559.80664,21.296875 H 597.5293 C 599.19472,21.296875 600.47461,22.578089 600.47461,24.244141 V 49.847656 C 600.47461,51.513708 599.19472,52.794922 597.5293,52.794922 H 559.80664 C 558.14122,52.794922 556.85937,51.513076 556.85938,49.847656 V 24.244141 C 556.85938,22.578721 558.14122,21.296875 559.80664,21.296875 Z M 569.2207,97.035156 C 560.08654,97.035156 552.61328,104.51036 552.61328,113.64453 V 186.63281 C 552.61328,195.76622 560.08624,203.24023 569.2207,203.24023 H 585.70508 C 594.83954,203.24023 602.31445,195.76622 602.31445,186.63281 V 113.64453 C 602.31445,104.51036 594.83925,97.035156 585.70508,97.035156 Z M 569.2207,103.50586 H 585.70508 C 591.34291,103.50586 595.84375,108.0067 595.84375,113.64453 V 186.63281 C 595.84375,192.26941 591.34262,196.76953 585.70508,196.76953 H 569.2207 C 563.58316,196.76953 559.08203,192.26941 559.08203,186.63281 V 113.64453 C 559.08203,108.0067 563.58287,103.50586 569.2207,103.50586 Z M 445.66992,147.61328 C 434.66756,147.61328 425.67773,156.60197 425.67773,167.60352 V 195.71875 C 425.67773,206.72111 434.66756,215.70898 445.66992,215.70898 H 506.41797 C 517.42033,215.70898 526.4082,206.72088 526.4082,195.71875 V 167.60352 C 526.4082,156.6022 517.42033,147.61328 506.41797,147.61328 Z M 445.66992,154.08398 H 506.41797 C 513.92361,154.08398 519.9375,160.09883 519.9375,167.60352 V 195.71875 C 519.9375,203.22462 513.92361,209.23828 506.41797,209.23828 H 445.66992 C 438.16428,209.23828 432.14844,203.22439 432.14844,195.71875 V 167.60352 C 432.14844,160.09906 438.16428,154.08398 445.66992,154.08398 Z M 220.03125,154.75 C 213.93462,154.75 208.92188,159.76092 208.92188,165.85742 V 193.4668 C 208.92188,199.56329 213.93462,204.57422 220.03125,204.57422 H 346.00781 C 352.10426,204.57422 357.11523,199.56324 357.11523,193.4668 V 165.85742 C 357.11523,159.76097 352.10426,154.75 346.00781,154.75 Z M 220.03125,161.21875 H 346.00781 C 348.60736,161.21875 350.64648,163.25787 350.64648,165.85742 V 193.4668 C 350.64648,196.06635 348.60736,198.10547 346.00781,198.10547 H 220.03125 C 217.43128,198.10547 215.39258,196.0663 215.39258,193.4668 V 165.85742 C 215.39258,163.25792 217.43128,161.21875 220.03125,161.21875 Z M 49.408203,169.94922 C 32.567772,169.94922 18.845703,183.67045 18.845703,200.51172 V 331.5332 C 18.845703,348.37359 32.567629,362.0957 49.408203,362.0957 H 164.37109 C 181.21149,362.0957 194.93359,348.3736 194.93359,331.5332 V 200.51172 C 194.93359,183.67044 181.21135,169.94922 164.37109,169.94922 Z M 49.408203,176.41992 H 164.37109 C 177.71484,176.41992 188.46289,187.167 188.46289,200.51172 V 331.5332 C 188.46289,344.87681 177.7147,355.62695 164.37109,355.62695 H 49.408203 C 36.064378,355.62695 25.316406,344.87682 25.316406,331.5332 V 200.51172 C 25.316406,187.16699 36.064235,176.41992 49.408203,176.41992 Z M 231.90234,216.0293 C 219.78072,216.0293 209.88477,225.92551 209.88477,238.04688 V 326.60742 C 209.88477,338.72879 219.78093,348.625 231.90234,348.625 H 390.00977 C 402.13109,348.625 412.02734,338.72875 412.02734,326.60742 V 238.04688 C 412.02734,225.92555 402.1313,216.0293 390.00977,216.0293 Z M 579.80469,217.01953 C 572.57585,217.01953 566.64453,222.9485 566.64453,230.17773 V 270.12109 C 566.64453,277.34965 572.57545,283.27734 579.80469,283.27734 H 683.26172 C 690.49027,283.27734 696.41992,277.34965 696.41992,270.12109 V 230.17773 C 696.41992,222.9485 690.48988,217.01953 683.26172,217.01953 Z M 716.21875,220.52734 C 708.56732,220.52734 701.99023,226.27435 701.99023,233.69531 V 388.98438 C 701.99023,396.40533 708.56725,402.15234 716.21875,402.15234 H 760.1543 C 767.80579,402.15234 774.38281,396.40533 774.38281,388.98438 V 233.69531 C 774.38281,226.27435 767.80573,220.52734 760.1543,220.52734 Z M 231.90234,222.5 H 390.00977 C 398.63423,222.5 405.55664,229.4222 405.55664,238.04688 V 326.60742 C 405.55664,335.23209 398.63444,342.1543 390.00977,342.1543 H 231.90234 C 223.27756,342.1543 216.35547,335.23205 216.35547,326.60742 V 238.04688 C 216.35547,229.42224 223.27776,222.5 231.90234,222.5 Z M 579.80469,223.49023 H 683.26172 C 686.99356,223.49023 689.94922,226.44497 689.94922,230.17773 V 270.12109 C 689.94922,273.85254 686.99317,276.80859 683.26172,276.80859 H 579.80469 C 576.07192,276.80859 573.11523,273.85254 573.11523,270.12109 V 230.17773 C 573.11523,226.44497 576.07153,223.49023 579.80469,223.49023 Z M 716.21875,226.99805 H 760.1543 C 764.64687,226.99805 767.91406,230.14423 767.91406,233.69531 V 388.98438 C 767.91406,392.53546 764.6468,395.68359 760.1543,395.68359 H 716.21875 C 711.72625,395.68359 708.45898,392.53546 708.45898,388.98438 V 233.69531 C 708.45898,230.14423 711.72618,226.99805 716.21875,226.99805 Z M 452.56641,234.61914 C 435.23399,234.61914 421.11328,248.74091 421.11328,266.07422 V 308.04492 C 421.11328,325.37734 435.23399,339.49805 452.56641,339.49805 H 505.71484 C 523.04815,339.49805 537.16797,325.37734 537.16797,308.04492 V 266.07422 C 537.16797,248.74091 523.04815,234.61914 505.71484,234.61914 Z M 452.56641,241.08984 H 505.71484 C 519.55154,241.08984 530.69727,252.23752 530.69727,266.07422 V 308.04492 C 530.69727,321.88051 519.55154,333.02734 505.71484,333.02734 H 452.56641 C 438.73082,333.02734 427.58203,321.88051 427.58203,308.04492 V 266.07422 C 427.58203,252.23752 438.73082,241.08984 452.56641,241.08984 Z M 561.76562,288.76562 C 553.04245,288.76562 546.58984,297.07331 546.58984,306.53906 V 371.60742 C 546.58984,381.07317 553.04245,389.38281 561.76562,389.38281 H 677.48438 C 686.20755,389.38281 692.6582,381.07295 692.6582,371.60742 V 306.53906 C 692.6582,297.07353 686.20755,288.76563 677.48438,288.76562 Z M 561.76562,295.23438 H 677.48438 C 681.94914,295.23438 686.18945,299.94459 686.18945,306.53906 V 371.60742 C 686.18945,378.20189 681.94914,382.91211 677.48438,382.91211 H 561.76562 C 557.30086,382.91211 553.06055,378.20167 553.06055,371.60742 V 306.53906 C 553.06055,299.94481 557.30086,295.23438 561.76562,295.23438 Z M 399.82812,352.82031 C 394.39882,352.82031 389.92773,357.29029 389.92773,362.7207 V 489.47656 C 389.92773,494.90697 394.39824,499.37891 399.82812,499.37891 H 519.20898 C 524.63887,499.37891 529.10937,494.90697 529.10938,489.47656 V 362.7207 C 529.10937,357.29029 524.63828,352.82031 519.20898,352.82031 Z M 333.87109,358.34961 C 331.03245,358.34961 328.12109,360.4097 328.12109,363.66992 V 463.83984 C 328.12109,467.10008 331.03115,469.16211 333.87109,469.16211 H 363.86523 C 366.70518,469.16211 369.61523,467.10008 369.61523,463.83984 V 363.66992 C 369.61523,360.4097 366.70387,358.34961 363.86523,358.34961 Z M 399.82812,359.28906 H 519.20898 C 521.14168,359.28906 522.64062,360.78711 522.64062,362.7207 V 489.47656 C 522.64062,491.41015 521.1411,492.9082 519.20898,492.9082 H 399.82812 C 397.89601,492.9082 396.39648,491.41015 396.39648,489.47656 V 362.7207 C 396.39648,360.78711 397.89543,359.28906 399.82812,359.28906 Z M 334.58984,364.82031 H 363.14453 V 462.69141 H 334.58984 Z M 38.826172,367.4668 C 29.307801,367.4668 21.521484,375.25144 21.521484,384.76953 V 409.93164 C 21.521484,419.44973 29.308078,427.23437 38.826172,427.23438 H 201.14258 C 210.6599,427.23438 218.44531,419.45001 218.44531,409.93164 V 384.76953 C 218.44531,375.25116 210.66017,367.4668 201.14258,367.4668 Z M 38.826172,373.93555 H 201.14258 C 207.16298,373.93555 211.97461,378.7479 211.97461,384.76953 V 409.93164 C 211.97461,415.95327 207.16326,420.76367 201.14258,420.76367 H 38.826172 C 32.804265,420.76367 27.992187,415.95355 27.992188,409.93164 V 384.76953 C 27.992188,378.74762 32.804543,373.93555 38.826172,373.93555 Z M 235.17188,378.22852 C 231.65833,378.22852 228.74219,381.14588 228.74219,384.6582 V 439.99805 C 228.74219,443.51037 231.65833,446.42773 235.17188,446.42773 H 253.67773 C 257.19128,446.42773 260.10742,443.5116 260.10742,439.99805 V 384.6582 C 260.10742,381.14466 257.19128,378.22852 253.67773,378.22852 Z M 275.42773,381.83203 C 271.52063,381.83203 268.2832,385.06945 268.2832,388.97656 V 433.24414 C 268.2832,437.15106 271.52063,440.38672 275.42773,440.38672 H 314.14844 C 318.05555,440.38672 321.29297,437.15106 321.29297,433.24414 V 388.97656 C 321.29297,385.06945 318.05555,381.83203 314.14844,381.83203 Z M 235.21289,384.69727 H 253.63867 V 439.95898 H 235.21289 Z M 275.42773,388.30273 H 314.14844 C 314.55933,388.30273 314.82227,388.56567 314.82227,388.97656 V 433.24414 C 314.82227,433.65322 314.55933,433.91602 314.14844,433.91602 H 275.42773 C 275.01684,433.91602 274.75391,433.65322 274.75391,433.24414 V 388.97656 C 274.75391,388.56567 275.01684,388.30273 275.42773,388.30273 Z M 579.80469,403.95312 C 571.21846,403.95313 564.1875,410.98315 564.1875,419.57031 V 572.25391 C 564.1875,580.84033 571.21814,587.87109 579.80469,587.87109 H 650.92773 C 659.51428,587.87109 666.54492,580.84045 666.54492,572.25391 V 419.57031 C 666.54492,410.98302 659.51397,403.95313 650.92773,403.95312 Z M 684.46875,408.75 C 680.48009,408.75 677.17578,412.05139 677.17578,416.04102 V 480.5 C 677.17578,484.48984 680.48009,487.79297 684.46875,487.79297 H 765.51367 C 769.50233,487.79297 772.80664,484.48984 772.80664,480.5 V 416.04102 C 772.80664,412.05139 769.50233,408.75 765.51367,408.75 Z M 579.80469,410.42188 H 650.92773 C 656.0175,410.42188 660.07617,414.4796 660.07617,419.57031 V 572.25391 C 660.07617,577.34336 656.01719,581.40234 650.92773,581.40234 H 579.80469 C 574.71523,581.40234 570.6582,577.34349 570.6582,572.25391 V 419.57031 C 570.6582,414.47948 574.71492,410.42188 579.80469,410.42188 Z M 684.46875,415.21875 H 765.51367 C 766.00701,415.21875 766.33594,415.54864 766.33594,416.04102 V 480.5 C 766.33594,480.99416 766.00701,481.32227 765.51367,481.32227 H 684.46875 C 683.97541,481.32227 683.64453,480.99416 683.64453,480.5 V 416.04102 C 683.64453,415.54864 683.97541,415.21875 684.46875,415.21875 Z M 54.085938,431.02539 C 34.650632,431.02539 18.826172,446.85075 18.826172,466.28516 V 500.17773 C 18.826172,519.61304 34.650632,535.43945 54.085938,535.43945 H 129.94531 C 149.38062,535.43945 165.20508,519.61304 165.20508,500.17773 V 466.28516 C 165.20508,446.85075 149.38062,431.02539 129.94531,431.02539 Z M 54.085938,437.49609 H 129.94531 C 145.88401,437.49609 158.73633,450.34756 158.73633,466.28516 V 500.17773 C 158.73633,516.11643 145.88401,528.96875 129.94531,528.96875 H 54.085938 C 38.147243,528.96875 25.296875,516.11643 25.296875,500.17773 V 466.28516 C 25.296875,450.34756 38.147243,437.49609 54.085938,437.49609 Z M 179.00781,478.16602 C 171.50532,478.16602 165.35352,484.31712 165.35352,491.82031 V 509.22852 C 165.35352,516.73171 171.50532,522.88281 179.00781,522.88281 H 356.20508 C 363.70757,522.88281 369.85938,516.73171 369.85938,509.22852 V 491.82031 C 369.85938,484.31712 363.70757,478.16602 356.20508,478.16602 Z M 179.00781,484.63672 H 356.20508 C 360.21058,484.63672 363.38867,487.81351 363.38867,491.82031 V 509.22852 C 363.38867,513.23532 360.21058,516.41406 356.20508,516.41406 H 179.00781 C 175.00231,516.41406 171.82422,513.23532 171.82422,509.22852 V 491.82031 C 171.82422,487.81351 175.00231,484.63672 179.00781,484.63672 Z M 685.24609,498.4082 C 681.72084,498.4082 678.25,500.92573 678.25,504.75781 V 606.72266 C 678.25,610.55474 681.72159,613.07031 685.24609,613.07031 H 765.52539 C 769.04964,613.07031 772.52148,610.55475 772.52148,606.72266 V 504.75781 C 772.52148,500.92572 769.05038,498.4082 765.52539,498.4082 Z M 684.71875,504.75781 C 684.71875,505.14962 684.61573,504.87891 685.24609,504.87891 H 765.52539 C 766.1543,504.87891 766.05078,505.14963 766.05078,504.75781 V 606.72266 C 766.05078,606.33084 766.15504,606.60156 765.52539,606.60156 H 685.24609 C 684.61498,606.60156 684.71875,606.33085 684.71875,606.72266 Z M 506.08984,506.33789 C 503.12273,506.33789 501.5,508.96461 501.5,511.29102 V 617.20508 C 501.5,619.53148 503.12273,622.1582 506.08984,622.1582 H 551.82812 C 554.79524,622.1582 556.41797,619.5315 556.41797,617.20508 V 511.29102 C 556.41797,508.96459 554.79524,506.33789 551.82812,506.33789 Z M 385.60742,508.85352 C 381.20285,508.85352 377.5625,512.49421 377.5625,516.89844 V 579.84375 C 377.5625,584.24798 381.20204,587.88867 385.60742,587.88867 H 486.62305 C 491.02809,587.88867 494.66797,584.24879 494.66797,579.84375 V 516.89844 C 494.66797,512.49339 491.02728,508.85352 486.62305,508.85352 Z M 507.9707,512.80859 H 549.94727 V 615.6875 H 507.9707 Z M 385.60742,515.32422 H 486.62305 C 487.53082,515.32422 488.19922,515.99148 488.19922,516.89844 V 579.84375 C 488.19922,580.75071 487.53,581.41992 486.62305,581.41992 H 385.60742 C 384.69881,581.41992 384.03125,580.75152 384.03125,579.84375 V 516.89844 C 384.03125,515.99067 384.698,515.32422 385.60742,515.32422 Z M 243.35742,530.45312 C 234.69295,530.45312 227.59961,537.54647 227.59961,546.21094 V 592.99414 C 227.59961,601.65861 234.69295,608.75195 243.35742,608.75195 H 309.40039 C 318.06486,608.75195 325.1582,601.65861 325.1582,592.99414 V 546.21094 C 325.1582,537.54647 318.06486,530.45312 309.40039,530.45312 Z M 243.35742,536.92383 H 309.40039 C 314.56792,536.92383 318.6875,541.04341 318.6875,546.21094 V 592.99414 C 318.6875,598.16167 314.56792,602.28125 309.40039,602.28125 H 243.35742 C 238.18989,602.28125 234.06836,598.16167 234.06836,592.99414 V 546.21094 C 234.06836,541.04341 238.18989,536.92383 243.35742,536.92383 Z M 29.412109,543.93359 C 21.06962,543.93359 14.236328,550.76698 14.236328,559.10938 V 598.31641 C 14.236328,606.6588 21.06962,613.49219 29.412109,613.49219 H 192.65234 C 200.99483,613.49219 207.82617,606.65857 207.82617,598.31641 V 559.10938 C 207.82617,550.76721 200.99483,543.93359 192.65234,543.93359 Z M 29.412109,550.4043 H 192.65234 C 197.49785,550.4043 201.35742,554.26354 201.35742,559.10938 V 598.31641 C 201.35742,603.16224 197.49785,607.02148 192.65234,607.02148 H 29.412109 C 24.566599,607.02148 20.707031,603.16201 20.707031,598.31641 V 559.10938 C 20.707031,554.26377 24.566599,550.4043 29.412109,550.4043 Z M 357.49414,596.85156 C 336.13775,596.85156 318.75586,614.23448 318.75586,635.58984 V 747.34375 C 318.75586,768.70003 336.13786,786.08203 357.49414,786.08203 H 445.74023 C 467.0956,786.08203 484.47656,768.70003 484.47656,747.34375 V 635.58984 C 484.47656,614.23448 467.09571,596.85156 445.74023,596.85156 Z M 357.49414,603.32031 H 445.74023 C 463.59876,603.32031 478.00586,617.73121 478.00586,635.58984 V 747.34375 C 478.00586,765.20347 463.59887,779.61133 445.74023,779.61133 H 357.49414 C 339.63442,779.61133 325.22656,765.20347 325.22656,747.34375 V 635.58984 C 325.22656,617.73121 339.63453,603.32031 357.49414,603.32031 Z M 587.99023,606.44336 C 583.41097,606.44336 579.62891,610.22542 579.62891,614.80469 V 684.06641 C 579.62891,688.64567 583.41097,692.42773 587.99023,692.42773 H 606.13086 C 610.71016,692.42773 614.49219,688.64559 614.49219,684.06641 V 614.80469 C 614.49219,610.2255 610.71016,606.44336 606.13086,606.44336 Z M 587.99023,612.91406 H 606.13086 C 607.21336,612.91406 608.02148,613.72187 608.02148,614.80469 V 684.06641 C 608.02148,685.14922 607.21336,685.95703 606.13086,685.95703 H 587.99023 C 586.9079,685.95703 586.09961,685.14914 586.09961,684.06641 V 614.80469 C 586.09961,613.72195 586.9079,612.91406 587.99023,612.91406 Z M 50.578125,618.01758 C 31.893845,618.01758 16.677734,633.23362 16.677734,651.91797 V 750.74414 C 16.677734,769.42848 31.893717,784.64453 50.578125,784.64453 H 93.083984 C 111.76839,784.64453 126.98438,769.42842 126.98438,750.74414 V 651.91797 C 126.98438,633.23369 111.76827,618.01758 93.083984,618.01758 Z M 630.38281,621.58594 C 624.38684,621.58594 619.45703,626.51574 619.45703,632.51172 V 775.24609 C 619.45703,781.24207 624.38633,786.17383 630.38281,786.17383 H 764.21289 C 770.20937,786.17383 775.13867,781.24258 775.13867,775.24609 V 632.51172 C 775.13867,626.51523 770.20887,621.58594 764.21289,621.58594 Z M 50.578125,624.48828 H 93.083984 C 108.27171,624.48828 120.51367,636.73025 120.51367,651.91797 V 750.74414 C 120.51367,765.93186 108.27158,778.17383 93.083984,778.17383 H 50.578125 C 35.390533,778.17383 23.148438,765.9318 23.148438,750.74414 V 651.91797 C 23.148438,636.73031 35.390405,624.48828 50.578125,624.48828 Z M 630.38281,628.05469 H 764.21289 C 766.71291,628.05469 768.66992,630.0122 768.66992,632.51172 V 775.24609 C 768.66992,777.74561 766.71241,779.70313 764.21289,779.70312 H 630.38281 C 627.8833,779.70312 625.92578,777.74612 625.92578,775.24609 V 632.51172 C 625.92578,630.01169 627.88279,628.05469 630.38281,628.05469 Z M 518.10938,639.51562 C 503.82526,639.51562 491.69141,649.47217 491.69141,662.37695 V 696.88086 C 491.69141,709.78594 503.82526,719.74414 518.10938,719.74414 H 549.99414 C 564.27826,719.74414 576.41406,709.78593 576.41406,696.88086 V 662.37695 C 576.41406,649.47218 564.27826,639.51563 549.99414,639.51562 Z M 164.65625,643.92188 C 148.81796,643.92188 135.9082,656.82952 135.9082,672.66797 V 752.52148 C 135.9082,768.35993 148.81796,781.26758 164.65625,781.26758 H 281.82031 C 297.65861,781.26758 310.56836,768.35978 310.56836,752.52148 V 672.66797 C 310.56836,656.82968 297.65861,643.92187 281.82031,643.92188 Z M 518.10938,645.98438 H 549.99414 C 561.31804,645.98438 569.94336,653.60258 569.94336,662.37695 V 696.88086 C 569.94336,705.65567 561.31804,713.27344 549.99414,713.27344 H 518.10938 C 506.78549,713.27344 498.16016,705.65566 498.16016,696.88086 V 662.37695 C 498.16016,653.60259 506.78549,645.98438 518.10938,645.98438 Z M 164.65625,650.39062 H 281.82031 C 294.16202,650.39062 304.09766,660.32626 304.09766,672.66797 V 752.52148 C 304.09766,764.86319 294.16202,774.79883 281.82031,774.79883 H 164.65625 C 152.31454,774.79883 142.37891,764.86304 142.37891,752.52148 V 672.66797 C 142.37891,660.32641 152.31454,650.39062 164.65625,650.39062 Z M 505.7207,739.11133 C 497.74431,739.11133 491.20703,745.64754 491.20703,753.625 V 770.98438 C 491.20703,778.96184 497.74431,785.49609 505.7207,785.49609 H 594.20117 C 602.17757,785.49609 608.71484,778.96184 608.71484,770.98438 V 753.625 C 608.71484,745.64754 602.17757,739.11133 594.20117,739.11133 Z M 505.7207,745.58203 H 594.20117 C 598.68078,745.58203 602.24414,749.14446 602.24414,753.625 V 770.98438 C 602.24414,775.46491 598.68078,779.02734 594.20117,779.02734 H 505.7207 C 501.2411,779.02734 497.67773,775.46491 497.67773,770.98438 V 753.625 C 497.67773,749.14446 501.2411,745.58203 505.7207,745.58203 Z"
     id="path897"
     inkscape:connector-curvature="0" />
</svg>
