<?xml version="1.0" encoding="UTF-8" standalone="no"?>
<!-- Created with Inkscape (http://www.inkscape.org/) -->

<svg
   xmlns:dc="http://purl.org/dc/elements/1.1/"
   xmlns:cc="http://creativecommons.org/ns#"
   xmlns:rdf="http://www.w3.org/1999/02/22-rdf-syntax-ns#"
   xmlns:svg="http://www.w3.org/2000/svg"
   xmlns="http://www.w3.org/2000/svg"
   xmlns:sodipodi="http://sodipodi.sourceforge.net/DTD/sodipodi-0.dtd"
   xmlns:inkscape="http://www.inkscape.org/namespaces/inkscape"
   sodipodi:docname="roundrects.svg"
   inkscape:version="0.92.4 (5da689c313, 2019-01-14)"
   id="svg8"
   version="1.1"
   viewBox="0 0 800 800"
   height="800mm"
   width="800mm">
  <sodipodi:namedview
     width="800in"
     units="mm"
     inkscape:window-maximized="0"
     inkscape:window-y="0"
     inkscape:window-x="-8"
     inkscape:window-height="946"
     inkscape:window-width="1224"
     showgrid="true"
     inkscape:current-layer="svg8"
     inkscape:document-units="mm"
     inkscape:cy="840.71594"
     inkscape:cx="2103.0701"
     inkscape:zoom="0.11313709"
     inkscape:pageshadow="2"
     inkscape:pageopacity="0.0"
     borderopacity="1.0"
     bordercolor="#666666"
     pagecolor="#ffffff"
     id="base"
     showguides="true"
     inkscape:guide-bbox="true"
     inkscape:snap-global="false">
    <inkscape:grid
       type="xygrid"
       id="grid816" />
    <sodipodi:guide
       position="254,402.16666"
       orientation="0,1"
       id="guide814"
       inkscape:locked="false" />
  </sodipodi:namedview>
  <defs
     id="defs2" />
  <metadata
     id="metadata5">
    <rdf:RDF>
      <cc:Work
         rdf:about="">
        <dc:format>image/svg+xml</dc:format>
        <dc:type
           rdf:resource="http://purl.org/dc/dcmitype/StillImage" />
        <dc:title />
      </cc:Work>
    </rdf:RDF>
  </metadata>
  <g
     id="layer1"
     inkscape:groupmode="layer"
     inkscape:label="Layer 1" />
  <path
     id="path897"
     style="fill:#000000;fill-opacity:1;stroke:none;stroke-width:0.26951033px;stroke-linecap:butt;stroke-linejoin:miter;stroke-opacity:1"
     d="M 54.085971,434.26054 H 129.94596 C 147.63296,434.26054 161.97096,448.59854 161.97096,466.28454 V 500.17854 C 161.97096,517.86554 147.63296,532.20354 129.94596,532.20354 H 54.085971 C 36.398971,532.20354 22.060971,517.86554 22.060971,500.17854 V 466.28454 C 22.060971,448.59854 36.398971,434.26054 54.085971,434.26054 M 587.98945,609.67878 H 606.13145 C 608.96235,609.67878 611.25715,611.97378 611.25715,614.80478 V 684.06578 C 611.25715,686.89678 608.96235,689.19178 606.13145,689.19178 H 587.98945 C 585.15865,689.19178 582.86375,686.89678 582.86375,684.06578 V 614.80478 C 582.86375,611.97378 585.15865,609.67878 587.98945,609.67878 M 452.56593,237.85443 H 505.71393 C 521.29893,237.85443 533.93293,250.48843 533.93293,266.07343 V 308.04443 C 533.93293,323.62843 521.29893,336.26243 505.71393,336.26243 H 452.56593 C 436.98193,336.26243 424.34793,323.62843 424.34793,308.04443 V 266.07343 C 424.34793,250.48843 436.98193,237.85443 452.56593,237.85443 M 685.24653,501.64363 H 765.52501 C 767.60196,501.64363 769.28644,503.03815 769.28644,504.75829 V 606.72225 C 769.28644,608.44239 767.60196,609.83619 765.52501,609.83619 H 685.24653 C 683.16872,609.83619 681.48425,608.44239 681.48425,606.72225 V 504.75829 C 681.48425,503.03815 683.16872,501.64363 685.24653,501.64363 M 385.60668,512.08849 H 486.62368 C 489.27968,512.08849 491.43368,514.24149 491.43368,516.89749 V 579.84449 C 491.43368,582.50049 489.27968,584.65449 486.62368,584.65449 H 385.60668 C 382.94968,584.65449 380.79668,582.50049 380.79668,579.84449 V 516.89749 C 380.79668,514.24149 382.94968,512.08849 385.60668,512.08849 M 399.82806,18.002637 H 504.00706 C 524.10306,18.002637 540.39406,34.293637 540.39406,54.389637 V 97.80664 C 540.39406,117.90264 524.10306,134.19464 504.00706,134.19464 H 399.82806 C 379.73206,134.19464 363.44106,117.90264 363.44106,97.80664 V 54.389637 C 363.44106,34.293637 379.73206,18.002637 399.82806,18.002637 M 684.46835,411.98417 H 765.51335 C 767.75435,411.98417 769.57135,413.80017 769.57135,416.04117 V 480.50017 C 769.57135,482.74217 767.75435,484.55817 765.51335,484.55817 H 684.46835 C 682.22735,484.55817 680.41035,482.74217 680.41035,480.50017 V 416.04117 C 680.41035,413.80017 682.22735,411.98417 684.46835,411.98417 M 333.87026,361.58491 H 363.86526 C 365.25426,361.58491 366.38026,362.51855 366.38026,363.67027 V 463.84033 C 366.38026,464.99204 365.25426,465.92652 363.86526,465.92652 H 333.87026 C 332.48126,465.92652 331.35526,464.99204 331.35526,463.84033 V 363.67027 C 331.35526,362.51855 332.48126,361.58491 333.87026,361.58491 M 179.00759,481.40121 H 356.20459 C 361.95859,481.40121 366.62359,486.06621 366.62359,491.82121 V 509.22821 C 366.62359,514.98321 361.95859,519.64821 356.20459,519.64821 H 179.00759 C 173.25359,519.64821 168.58859,514.98321 168.58859,509.22821 V 491.82121 C 168.58859,486.06621 173.25359,481.40121 179.00759,481.40121 M 61.161392,18.002637 H 123.34639 C 145.89239,18.002637 164.16939,36.279737 164.16939,58.825237 V 122.49073 C 164.16939,145.03673 145.89239,163.31373 123.34639,163.31373 H 61.161392 C 38.616392,163.31373 20.339392,145.03673 20.339392,122.49073 V 58.825237 C 20.339392,36.279737 38.616392,18.002637 61.161392,18.002637 M 29.411392,547.1693 H 192.65289 C 199.24689,547.1693 204.59189,552.5153 204.59189,559.1093 V 598.3163 C 204.59189,604.9103 199.24689,610.2563 192.65289,610.2563 H 29.411392 C 22.817392,610.2563 17.471692,604.9103 17.471692,598.3163 V 559.1093 C 17.471692,552.5153 22.817392,547.1693 29.411392,547.1693 M 716.21835,223.76319 H 760.15435 C 766.22635,223.76319 771.14835,228.21001 771.14835,233.69603 V 388.9851 C 771.14835,394.47112 766.22635,398.91812 760.15435,398.91812 H 716.21835 C 710.14635,398.91812 705.22435,394.47112 705.22435,388.9851 V 233.69603 C 705.22435,228.21001 710.14635,223.76319 716.21835,223.76319 M 164.65611,647.15611 H 281.82111 C 295.91111,647.15611 307.33311,658.57811 307.33311,672.66811 V 752.52111 C 307.33311,766.61111 295.91111,778.03311 281.82111,778.03311 H 164.65611 C 150.56611,778.03311 139.14311,766.61111 139.14311,752.52111 V 672.66811 C 139.14311,658.57811 150.56611,647.15611 164.65611,647.15611 M 569.22098,100.2711 H 585.70598 C 593.09198,100.2711 599.07898,106.2581 599.07898,113.6441 V 186.6321 C 599.07898,194.0171 593.09198,200.0051 585.70598,200.0051 H 569.22098 C 561.83498,200.0051 555.84798,194.0171 555.84798,186.6321 V 113.6441 C 555.84798,106.2581 561.83498,100.2711 569.22098,100.2711 M 445.6693,150.84915 H 506.4173 C 515.6713,150.84915 523.1723,158.35115 523.1723,167.60415 V 195.71815 C 523.1723,204.97215 515.6713,212.47415 506.4173,212.47415 H 445.6693 C 436.4153,212.47415 428.9133,204.97215 428.9133,195.71815 V 167.60415 C 428.9133,158.35115 436.4153,150.84915 445.6693,150.84915 M 50.578059,621.25263 H 93.084459 C 110.02046,621.25263 123.74946,634.98163 123.74946,651.91763 V 750.74363 C 123.74946,767.67963 110.02046,781.40963 93.084459,781.40963 H 50.578059 C 33.642059,781.40963 19.912559,767.67963 19.912559,750.74363 V 651.91763 C 19.912559,634.98163 33.642059,621.25263 50.578059,621.25263 M 235.17194,381.46308 H 253.67694 C 255.44194,381.46308 256.87294,382.89408 256.87294,384.65808 V 439.99708 C 256.87294,441.76208 255.44194,443.19308 253.67694,443.19308 H 235.17194 C 233.40694,443.19308 231.97694,441.76208 231.97694,439.99708 V 384.65808 C 231.97694,382.89408 233.40694,381.46308 235.17194,381.46308 M 505.72098,742.34652 H 594.20198 C 600.42998,742.34652 605.47998,747.39552 605.47998,753.62452 V 770.98352 C 605.47998,777.21252 600.42998,782.26152 594.20198,782.26152 H 505.72098 C 499.49298,782.26152 494.44298,777.21252 494.44298,770.98352 V 753.62452 C 494.44298,747.39552 499.49298,742.34652 505.72098,742.34652 M 506.08902,509.57279 H 551.82849 C 552.57598,509.57279 553.18214,510.3421 553.18214,511.29135 V 617.2049 C 553.18214,618.15415 552.57598,618.92346 551.82849,618.92346 H 506.08902 C 505.34153,618.92346 504.73538,618.15415 504.73538,617.2049 V 511.29135 C 504.73538,510.3421 505.34153,509.57279 506.08902,509.57279 M 275.42767,385.06756 H 314.14867 C 316.30767,385.06756 318.05767,386.81756 318.05767,388.97656 V 433.24356 C 318.05767,435.40156 316.30767,437.15156 314.14867,437.15156 H 275.42767 C 273.26867,437.15156 271.51867,435.40156 271.51867,433.24356 V 388.97656 C 271.51867,386.81756 273.26867,385.06756 275.42767,385.06756 M 357.49472,600.08597 H 445.73972 C 465.34672,600.08597 481.24172,615.98197 481.24172,635.58897 V 747.34397 C 481.24172,766.95197 465.34672,782.84697 445.73972,782.84697 H 357.49472 C 337.88672,782.84697 321.99172,766.95197 321.99172,747.34397 V 635.58897 C 321.99172,615.98197 337.88672,600.08597 357.49472,600.08597 M 209.32806,18.002637 H 323.49106 C 339.21106,18.002637 351.95506,30.746637 351.95506,46.466637 V 108.17364 C 351.95506,123.89463 339.21106,136.63863 323.49106,136.63863 H 209.32806 C 193.60806,136.63863 180.86396,123.89463 180.86396,108.17364 V 46.466637 C 180.86396,30.746637 193.60806,18.002637 209.32806,18.002637 M 49.408755,173.18513 H 164.37154 C 179.46354,173.18513 191.69854,185.41913 191.69854,200.51213 V 331.53413 C 191.69854,346.62613 179.46354,358.86113 164.37154,358.86113 H 49.408755 C 34.316555,358.86113 22.081655,346.62613 22.081655,331.53413 V 200.51213 C 22.081655,185.41913 34.316555,173.18513 49.408755,173.18513 M 220.03059,157.98417 H 346.00769 C 350.35569,157.98417 353.88069,161.50917 353.88069,165.85717 V 193.46717 C 353.88069,197.81517 350.35569,201.34017 346.00769,201.34017 H 220.03059 C 215.68229,201.34017 212.15719,197.81517 212.15719,193.46717 V 165.85717 C 212.15719,161.50917 215.68229,157.98417 220.03059,157.98417 M 630.38237,624.82015 H 764.21237 C 768.46037,624.82015 771.90437,628.26315 771.90437,632.51115 V 775.24615 C 771.90437,779.49415 768.46037,782.93815 764.21237,782.93815 H 630.38237 C 626.13437,782.93815 622.69137,779.49415 622.69137,775.24615 V 632.51115 C 622.69137,628.26315 626.13437,624.82015 630.38237,624.82015 M 579.80432,407.18776 H 650.92832 C 657.76632,407.18776 663.31032,412.73076 663.31032,419.56976 V 572.25476 C 663.31032,579.09276 657.76632,584.63676 650.92832,584.63676 H 579.80432 C 572.96632,584.63676 567.42272,579.09276 567.42272,572.25476 V 419.56976 C 567.42272,412.73076 572.96632,407.18776 579.80432,407.18776 M 626.10837,18.002637 H 764.22757 C 770.14241,18.002637 774.93713,23.114037 774.93713,29.419037 V 196.17653 C 774.93713,202.48153 770.14241,207.59253 764.22757,207.59253 H 626.10837 C 620.19353,207.59253 615.39787,202.48153 615.39787,196.17653 V 29.419037 C 615.39787,23.114037 620.19353,18.002637 626.10837,18.002637 M 399.82806,356.05486 H 519.20906 C 522.89006,356.05486 525.87506,359.03886 525.87506,362.72086 V 489.47686 C 525.87506,493.15886 522.89006,496.14386 519.20906,496.14386 H 399.82806 C 396.14706,496.14386 393.16206,493.15886 393.16206,489.47686 V 362.72086 C 393.16206,359.03886 396.14706,356.05486 399.82806,356.05486 M 243.35707,533.68837 H 309.40007 C 316.31607,533.68837 321.92307,539.29537 321.92307,546.21137 V 592.99337 C 321.92307,599.90937 316.31607,605.51637 309.40007,605.51637 H 243.35707 C 236.44107,605.51637 230.83407,599.90937 230.83407,592.99337 V 546.21137 C 230.83407,539.29537 236.44107,533.68837 243.35707,533.68837 M 231.90242,219.26476 H 390.00963 C 400.38263,219.26476 408.79163,227.67476 408.79163,238.04776 V 326.60776 C 408.79163,336.98076 400.38263,345.38976 390.00963,345.38976 H 231.90242 C 221.52932,345.38976 213.12012,336.98076 213.12012,326.60776 V 238.04776 C 213.12012,227.67476 221.52932,219.26476 231.90242,219.26476 M 518.10951,642.75004 H 549.99506 C 562.79907,642.75004 573.17892,651.53738 573.17892,662.37695 V 696.88171 C 573.17892,707.72165 562.79907,716.509 549.99506,716.509 H 518.10951 C 505.30551,716.509 494.92561,707.72165 494.92561,696.88171 V 662.37695 C 494.92561,651.53738 505.30551,642.75004 518.10951,642.75004 M 561.76474,292 H 677.48513 C 684.0791,292 689.42407,298.51 689.42407,306.54 V 371.608 C 689.42407,379.638 684.0791,386.148 677.48513,386.148 H 561.76474 C 555.17077,386.148 549.82498,379.638 549.82498,371.608 V 306.54 C 549.82498,298.51 555.17077,292 561.76474,292 M 559.80695,18.062234 H 597.52895 C 600.94295,18.062234 603.70995,20.830234 603.70995,24.244234 V 49.848234 C 603.70995,53.262234 600.94295,56.030234 597.52895,56.030234 H 559.80695 C 556.39295,56.030234 553.62495,53.262234 553.62495,49.848234 V 24.244234 C 553.62495,20.830234 556.39295,18.062234 559.80695,18.062234 M 579.80432,220.25527 H 683.26132 C 688.74132,220.25527 693.18432,224.69727 693.18432,230.17827 V 270.12027 C 693.18432,275.60027 688.74132,280.04327 683.26132,280.04327 H 579.80432 C 574.32332,280.04327 569.88032,275.60027 569.88032,270.12027 V 230.17827 C 569.88032,224.69727 574.32332,220.25527 579.80432,220.25527 M 38.82542,370.70095 H 201.14241 C 208.91141,370.70095 215.21041,376.99995 215.21041,384.76995 V 409.93095 C 215.21041,417.70095 208.91141,423.99895 201.14241,423.99895 H 38.82542 C 31.05542,423.99895 24.75742,417.70095 24.75742,409.93095 V 384.76995 C 24.75742,376.99995 31.05542,370.70095 38.82542,370.70095" />
</svg>
